<svg version="1.1" xmlns="http://www.w3.org/2000/svg" viewBox="-4.492035376864558 -1.7013682522214937 9.063582504403728 3.4245571455912316" fill="none" stroke="black" stroke-width="0.6%" vector-effect="non-scaling-stroke">
    <path d="M -1.90222 0.66438 L -1.90222 -0.08339 A 0.1875 0.01446 360 0 1 -2.25952 -0.08952 A 0.1875 0.01446 360 0 1 -2.24183 -0.09565" />
    <path d="M -1.90222 0.66438 A 0.1875 0.01446 360 0 1 -2.25952 0.65824" />
    <path d="M -1.90222 0.66438 L -0.37396 0.71955 A 0.5 0.03855 180 0 0 0.27668 0.70314 L 0.27668 -0.04462 L 0.29088 -0.04678 L 3.52436 -0.57921 L 3.54737 -0.58371 A 0.5 0.03855 180 0 0 3.57155 -0.59555 L 3.57155 0.15221" />
    <path d="M -1.90222 -0.08339 L -0.37396 -0.02822 A 0.5 0.03855 180 0 0 0.27668 -0.04462" />
    <path d="M -3.20407 0.61737 L -2.25952 0.65148" />
    <path d="M -3.20407 -0.13039 L -2.24183 -0.09565" />
    <path d="M -3.49203 0.58246 A 0.5 0.03855 180 0 0 -3.20407 0.61737 L -3.20407 -0.13039" />
    <path d="M 3.54737 0.16406 A 0.5 0.03855 180 0 0 3.57155 0.15221" />
    <path d="M 3.52436 0.16856 L 3.54737 0.16406 L 3.54737 -0.58371" />
    <path d="M 0.29088 0.70098 L 3.52436 0.16856 L 3.52436 -0.57921" />
    <path d="M 0.27668 0.70314 L 0.29088 0.70098 L 0.29088 -0.04678" />
    <path d="M -3.46785 -0.17715 A 0.5 0.03855 180 0 0 -3.49203 -0.16531 L -3.49203 0.58246" />
    <path d="M -3.49203 -0.16531 A 0.5 0.03855 180 0 0 -3.20407 -0.13039" />
    <path d="M -3.44485 -0.18165 L -3.46785 -0.17715" />
    <path d="M -0.4234 -0.67916 L -3.44485 -0.18165" />
    <path d="M -0.4092 -0.68132 L -0.4234 -0.67916" />
    <path d="M 0.15284 -0.70017 A 0.5 0.03855 180 0 0 -0.4092 -0.68132" />
    <path d="M 3.19497 -0.63291 L 0.15284 -0.70017" />
    <path d="M 3.57155 -0.59555 A 0.5 0.03855 180 0 0 3.19497 -0.63291" />
    <path d="M -0.37396 0.71955 L -0.37396 -0.02822" />
    <path d="M -2.25952 -0.08952 L -2.25952 0.65824" />
</svg>