<svg version="1.1" xmlns="http://www.w3.org/2000/svg" viewBox="-1.736863987555414 -1.737852688238677 6.29239781858883 3.475705376477354" fill="none" stroke="black" stroke-width="0.6%" vector-effect="non-scaling-stroke">
    <path d="M 0.19968 0.71764 L 0.19968 -0.03003 L 0.21412 -0.03223 L 3.50652 -0.5749 L 3.53002 -0.57949 A 0.5 0.03945 180 0 0 3.55553 -0.59193 L 3.55553 0.15573" />
    <path d="M 0.21412 0.71543 L 0.21412 -0.03223" />
    <path d="M 0.19968 0.71764 L 0.21412 0.71543 L 3.50652 0.17277 L 3.53002 0.16817 L 3.53002 -0.57949" />
    <path d="M -0.73686 0.6984 A 0.5 0.03945 180 0 0 0.19968 0.71764" />
    <path d="M -0.73566 -0.052 A 0.5 0.03945 180 0 0 -0.73686 -0.04926 A 0.5 0.03945 180 0 0 0.19968 -0.03003" />
    <path d="M 3.50652 0.17277 L 3.50652 -0.5749" />
    <path d="M 3.53002 0.16817 A 0.5 0.03945 180 0 0 3.55553 0.15573" />
    <path d="M 3.55553 -0.59193 A 0.5 0.03945 180 0 0 3.27143 -0.62752 L 0.45276 -0.73398 A 0.5 0.03945 180 0 0 -0.26193 -0.70114 L -0.73566 -0.052" />
    <path d="M -0.73686 -0.04926 L -0.73686 0.6984" />
</svg>