<svg version="1.1" xmlns="http://www.w3.org/2000/svg" viewBox="-4.147577925951535 -1.7433282515150545 8.29515585190307 3.486656503030108" fill="none" stroke="black" stroke-width="0.6%" vector-effect="non-scaling-stroke">
    <path d="M -3.03526 0.63441 L -0.17247 0.74198 A 0.1875 0.0161 180 0 0 0.06942 0.7346 L 0.07448 0.73368 L 0.07448 -0.01355 L 3.13184 -0.61321 L 3.13991 -0.61511 A 0.1875 0.0161 180 0 0 3.14758 -0.61966 L 3.14758 0.12757" />
    <path d="M -3.03526 -0.11282 L -0.17247 -0.00525 A 0.1875 0.0161 180 0 0 0.06942 -0.01263 L 0.07448 -0.01355" />
    <path d="M -3.14758 0.61966 A 0.1875 0.0161 180 0 0 -3.03526 0.63441 L -3.03526 -0.11282" />
    <path d="M -3.13991 -0.13212 A 0.1875 0.0161 180 0 0 -3.14758 -0.12757 A 0.1875 0.0161 180 0 0 -3.03526 -0.11282" />
    <path d="M 0.06942 0.7346 L 0.06942 -0.01263" />
    <path d="M 0.07448 0.73368 L 3.13184 0.13402 L 3.13184 -0.61321" />
    <path d="M 3.13184 0.13402 L 3.13991 0.13212 L 3.13991 -0.61511" />
    <path d="M 3.13991 0.13212 A 0.1875 0.0161 180 0 0 3.14758 0.12757" />
    <path d="M 3.14758 -0.61966 A 0.1875 0.0161 180 0 0 3.03526 -0.63441 L 0.17247 -0.74198 A 0.1875 0.0161 180 0 0 -0.06942 -0.7346 L -0.07448 -0.73368 L -3.13184 -0.13402 L -3.13991 -0.13212" />
    <path d="M -0.17247 0.74198 L -0.17247 -0.00525" />
    <path d="M -3.14758 -0.12757 L -3.14758 0.61966" />
</svg>