<svg version="1.1" xmlns="http://www.w3.org/2000/svg" viewBox="-4.2065517071330945 -1.74647286047155 8.413103414266189 3.592475290769946" fill="none" stroke="black" stroke-width="0.6%" vector-effect="non-scaling-stroke">
    <path d="M -3.20655 0.13591 L -3.20655 -0.61056 L 0 0.09953 L 3.20655 -0.03639 L 0 -0.74647 L -3.20655 -0.61056" />
    <path d="M 0 0.846 L 0 0.09953" />
    <path d="M -3.20655 0.13591 L 0 0.846 L 3.20655 0.71009 L 3.20655 -0.03639" />
    <path d="M -0.31868 -0.33361 L -0.34627 -0.33972 L -0.34627 -0.43925 L 0.06103 -0.47676 L 0.09802 -0.46857 L -0.2199 -0.44089 L 0.2043 -0.44503 L 0.24129 -0.43684 L -0.31868 -0.43314 L -0.34627 -0.43925" />
    <path d="M -0.12903 -0.33487 L -0.31868 -0.33361 L -0.31868 -0.43314" />
    <path d="M -0.09263 -0.28355 L -0.12903 -0.29162 L -0.12903 -0.39115 L 0.42254 -0.41452 L 0.28826 -0.42809 L 0.36341 -0.43128 L 0.55616 -0.41208 L 0.56183 -0.41082 L -0.09263 -0.38308 L -0.12903 -0.39115" />
    <path d="M 0.56183 -0.3113 L -0.09263 -0.28355 L -0.09263 -0.38308" />
    <path d="M 0.09802 -0.444 L 0.09802 -0.46857" />
    <path d="M 0.24129 -0.40684 L 0.24129 -0.43684" />
    <path d="M 0.56183 -0.3113 L 0.56183 -0.41082" />
    <path d="M 0.28826 -0.40883 L 0.28826 -0.42809" />
</svg>