<svg version="1.1" xmlns="http://www.w3.org/2000/svg" viewBox="-6.316053231331703 -1.6458298232977722 12.6963952889665 3.3843990799704295" fill="none" stroke="black" stroke-width="0.6%" vector-effect="non-scaling-stroke">
    <path d="M -3.32671 0.58562 L -0.39781 0.73185 A 0.5 0.03264 180 0 0 0.28324 0.72735 L 0.3031 0.72576 L 0.3031 -0.02264 L 5.27748 -0.44713 L 5.31242 -0.45053 A 0.5 0.03264 180 0 0 5.38034 -0.46695 L 5.38034 0.28145" />
    <path d="M -3.32671 -0.16278 L -0.39781 -0.01655 A 0.5 0.03264 180 0 0 0.28324 -0.02105 L 0.3031 -0.02264" />
    <path d="M -3.52293 0.55969 A 0.5 0.03264 180 0 0 -3.32671 0.58562 L -3.32671 -0.16278" />
    <path d="M -3.45501 -0.20513 A 0.5 0.03264 180 0 0 -3.52293 -0.18871 A 0.5 0.03264 180 0 0 -3.32671 -0.16278" />
    <path d="M 0.28324 0.72735 L 0.28324 -0.02105" />
    <path d="M 0.3031 0.72576 L 5.27748 0.30128 L 5.27748 -0.44713" />
    <path d="M 5.27748 0.30128 L 5.31242 0.29787 L 5.31242 -0.45053" />
    <path d="M 5.31242 0.29787 A 0.5 0.03264 180 0 0 5.38034 0.28145" />
    <path d="M 5.38034 -0.46695 A 0.5 0.03264 180 0 0 5.18412 -0.49288 L 2.25523 -0.63911 A 0.5 0.03264 180 0 0 1.57417 -0.63461 L 1.55431 -0.63302 L -3.42007 -0.20854 L -3.45501 -0.20513" />
    <path d="M -5.27748 -0.30128 A 0.1875 0.01224 360 0 1 -4.94105 -0.29384 L -4.94105 0.45456" />
    <path d="M -4.94105 -0.29384 A 0.1875 0.01224 360 0 1 -5.31605 -0.29384 L -5.31605 0.45456 A 0.1875 0.01224 180 0 0 -4.94105 0.45456" />
    <path d="M -5.31605 -0.29384 A 0.1875 0.01224 360 0 1 -5.27748 -0.30128" />
    <path d="M -0.39781 0.73185 L -0.39781 -0.01655" />
    <path d="M -3.52293 -0.18871 L -3.52293 0.55969" />
</svg>