<svg version="1.1" xmlns="http://www.w3.org/2000/svg" viewBox="-6.224976185172221 -1.6934052858240238 12.286691060262356 3.5024554708733344" fill="none" stroke="black" stroke-width="0.6%" vector-effect="non-scaling-stroke">
    <path d="M -0.74438 0.56518 L 0.92818 0.79097 A 0.5 0.03107 180 0 0 1.56251 0.80696 L 1.59144 0.8062 L 4.77078 0.71526 L 4.82606 0.71341 A 0.5 0.03107 180 0 0 5.06171 0.68704" />
    <path d="M -0.74438 -0.18337 L 0.92818 0.04242 A 0.5 0.03107 180 0 0 1.56251 0.05841 L 1.59144 0.05765 L 4.77078 -0.03329 L 4.82606 -0.03514 A 0.5 0.03107 180 0 0 5.06171 -0.06151 A 0.5 0.03107 180 0 0 5.01591 -0.0745 L 1.67078 -0.52608 A 0.5 0.03107 180 0 0 1.03645 -0.54207 L 1.00752 -0.54131 L -0.58215 -0.49584 L -2.04564 -0.6934 L -5.22498 -0.60246 L -1.87985 -0.15089 L -0.74438 -0.18337 L -0.74438 0.56518" />
    <path d="M -5.22498 0.14609 L -1.87985 0.59766 L -0.74438 0.56518" />
    <path d="M 1.56251 0.80696 L 1.56251 0.05841" />
    <path d="M -2.08551 -0.42935 L -2.28335 -0.42827 L -2.28335 -0.52808 L -2.31214 -0.53197 L -1.91226 -0.5565 L -1.87367 -0.55129 L -2.18611 -0.53317 L -1.7628 -0.53632 L -1.72422 -0.53111 L -2.28335 -0.52808" />
    <path d="M -2.28335 -0.42827 L -2.31214 -0.43216 L -2.31214 -0.53197" />
    <path d="M -1.39863 -0.415 L -2.04753 -0.39644 L -2.04753 -0.49625 L -2.08551 -0.50137 L -1.53862 -0.51702 L -1.67554 -0.52556 L -1.60102 -0.52769 L -1.40455 -0.51561 L -1.39863 -0.51481 L -2.04753 -0.49625" />
    <path d="M -2.04753 -0.39644 L -2.08551 -0.40157 L -2.08551 -0.50137" />
    <path d="M -1.87985 0.59766 L -1.87985 -0.15089" />
    <path d="M 1.59144 0.8062 L 1.59144 0.05765" />
    <path d="M 4.77078 0.71526 L 4.77078 -0.03329" />
    <path d="M 4.82606 0.71341 L 4.82606 -0.03514" />
    <path d="M -1.87367 -0.5355 L -1.87367 -0.55129" />
    <path d="M -1.72422 -0.51171 L -1.72422 -0.53111" />
    <path d="M -1.39863 -0.415 L -1.39863 -0.51481" />
    <path d="M -1.67554 -0.5131 L -1.67554 -0.52556" />
    <path d="M -5.22498 0.14609 L -5.22498 -0.60246" />
    <path d="M 0.92818 0.79097 L 0.92818 0.04242" />
    <path d="M 5.06171 -0.06151 L 5.06171 0.68704" />
</svg>