<svg version="1.1" xmlns="http://www.w3.org/2000/svg" viewBox="-1.363416496402677 -1.7431130843941758 2.7268329928053543 3.4862261687883516" fill="none" stroke="black" stroke-width="0.6%" vector-effect="non-scaling-stroke">
    <path d="M 0.16347 -0.04953 A 0.1875 0.02458 0 0 1 0.36342 -0.025 A 0.1875 0.02458 0 1 1 -0.01158 -0.025 A 0.1875 0.02458 0 0 1 0.16347 -0.04953 Z" />
    <path d="M -0.01158 0.71853 A 0.1875 0.02458 180 1 0 0.36342 0.71853" />
    <path d="M -0.18836 -0.74306 A 0.1875 0.02458 0 0 1 0.01158 -0.71853 A 0.1875 0.02458 0 1 1 -0.36342 -0.71853 L -0.36342 0.025 A 0.1875 0.02458 180 0 0 -0.01158 0.03684" />
    <path d="M -0.36342 -0.71853 A 0.1875 0.02458 0 0 1 -0.18836 -0.74306" />
    <path d="M -0.01158 -0.025 L -0.01158 0.71853" />
    <path d="M 0.36342 -0.025 L 0.36342 0.71853" />
    <path d="M 0.01158 -0.71853 L 0.01158 -0.03684" />
</svg>