<svg version="1.1" xmlns="http://www.w3.org/2000/svg" viewBox="-4.049218563842551 -1.7367118264664176 8.098437127685102 3.4734236529328357" fill="none" stroke="black" stroke-width="0.6%" vector-effect="non-scaling-stroke">
    <path d="M -2.74982 0.64652 L -0.45986 0.73309 A 0.5 0.04315 180 0 0 0.18524 0.71332 L 0.19874 0.71087 L 0.19874 -0.03633 L 3.00721 -0.58969 L 3.02874 -0.59478 A 0.5 0.04315 180 0 0 3.04922 -0.607 L 3.04922 0.1402" />
    <path d="M -2.74982 -0.10068 L -0.45986 -0.01412 A 0.5 0.04315 180 0 0 0.18524 -0.03388 L 0.19874 -0.03633" />
    <path d="M -3.04922 0.607 A 0.5 0.04315 180 0 0 -2.74982 0.64652 L -2.74982 -0.10068" />
    <path d="M -3.02874 -0.15243 A 0.5 0.04315 180 0 0 -3.04922 -0.1402 A 0.5 0.04315 180 0 0 -2.74982 -0.10068" />
    <path d="M 0.18524 0.71332 L 0.18524 -0.03388" />
    <path d="M 0.19874 0.71087 L 3.00721 0.15752 L 3.00721 -0.58969" />
    <path d="M 3.00721 0.15752 L 3.02874 0.15243 L 3.02874 -0.59478" />
    <path d="M 3.02874 0.15243 A 0.5 0.04315 180 0 0 3.04922 0.1402" />
    <path d="M 3.04922 -0.607 A 0.5 0.04315 180 0 0 2.74982 -0.64652 L 0.45986 -0.73309 A 0.5 0.04315 180 0 0 -0.18524 -0.71332 L -0.19874 -0.71087 L -3.00721 -0.15752 L -3.02874 -0.15243" />
    <path d="M -0.45986 0.73309 L -0.45986 -0.01412" />
    <path d="M -3.04922 -0.1402 L -3.04922 0.607" />
</svg>