<svg version="1.1" xmlns="http://www.w3.org/2000/svg" viewBox="-5.003690670783917 -1.7386149026867863 10.007381341567834 3.4772298053735726" fill="none" stroke="black" stroke-width="0.6%" vector-effect="non-scaling-stroke">
    <path d="M -3.73106 0.61195 L -0.44689 0.73461 A 0.5 0.03658 180 0 0 0.21064 0.72068 L 0.22579 0.71867 L 0.22579 -0.02932 L 3.949 -0.56274 L 3.97399 -0.56695 A 0.5 0.03658 180 0 0 4.00369 -0.57937 L 4.00369 0.16862" />
    <path d="M -3.73106 -0.13604 L -0.44689 -0.01338 A 0.5 0.03658 180 0 0 0.21064 -0.02731 L 0.22579 -0.02932" />
    <path d="M -4.00369 0.57937 A 0.5 0.03658 180 0 0 -3.73106 0.61195 L -3.73106 -0.13604" />
    <path d="M -3.97399 -0.18104 A 0.5 0.03658 180 0 0 -4.00369 -0.16862 A 0.5 0.03658 180 0 0 -3.73106 -0.13604" />
    <path d="M 0.21064 0.72068 L 0.21064 -0.02731" />
    <path d="M 0.22579 0.71867 L 3.949 0.18525 L 3.949 -0.56274" />
    <path d="M 3.949 0.18525 L 3.97399 0.18104 L 3.97399 -0.56695" />
    <path d="M 3.97399 0.18104 A 0.5 0.03658 180 0 0 4.00369 0.16862" />
    <path d="M 4.00369 -0.57937 A 0.5 0.03658 180 0 0 3.73106 -0.61195 L 0.44689 -0.73461 A 0.5 0.03658 180 0 0 -0.21064 -0.72068 L -0.22579 -0.71867 L -3.949 -0.18525 L -3.97399 -0.18104" />
    <path d="M -0.44689 0.73461 L -0.44689 -0.01338" />
    <path d="M -4.00369 -0.16862 L -4.00369 0.57937" />
</svg>